<mxfile host="Electron" modified="2024-01-12T08:46:17.276Z" agent="Mozilla/5.0 (Windows NT 10.0; Win64; x64) AppleWebKit/537.36 (KHTML, like Gecko) draw.io/22.0.3 Chrome/114.0.5735.289 Electron/25.8.4 Safari/537.36" etag="NgERXM0dL7rFgdPjEE0U" version="22.0.3" type="device">
  <diagram id="C5RBs43oDa-KdzZeNtuy" name="Page-1">
    <mxGraphModel dx="2074" dy="696" grid="1" gridSize="10" guides="1" tooltips="1" connect="1" arrows="1" fold="1" page="1" pageScale="1" pageWidth="827" pageHeight="1169" math="0" shadow="0">
      <root>
        <mxCell id="WIyWlLk6GJQsqaUBKTNV-0" />
        <mxCell id="WIyWlLk6GJQsqaUBKTNV-1" parent="WIyWlLk6GJQsqaUBKTNV-0" />
        <mxCell id="QqlK9VXSwcepvZ4LUtZZ-38" value="" style="rounded=1;absoluteArcSize=1;html=1;arcSize=10;strokeWidth=5;strokeColor=#005700;fillColor=#FFD966;fontColor=#ffffff;opacity=10;" parent="WIyWlLk6GJQsqaUBKTNV-1" vertex="1">
          <mxGeometry x="-800" y="3507" width="740" height="247" as="geometry" />
        </mxCell>
        <mxCell id="QqlK9VXSwcepvZ4LUtZZ-39" value="Chacter" style="html=1;shape=mxgraph.er.anchor;whiteSpace=wrap;fillColor=#6A00FF;" parent="QqlK9VXSwcepvZ4LUtZZ-38" vertex="1">
          <mxGeometry x="20.273972602739725" width="152.05479452054794" height="48.785634517766496" as="geometry" />
        </mxCell>
        <mxCell id="QqlK9VXSwcepvZ4LUtZZ-21" value="UAbilityComponent" style="html=1;whiteSpace=wrap;" parent="QqlK9VXSwcepvZ4LUtZZ-38" vertex="1">
          <mxGeometry x="410" y="160" width="120" height="50" as="geometry" />
        </mxCell>
        <mxCell id="QqlK9VXSwcepvZ4LUtZZ-26" value="" style="rounded=1;absoluteArcSize=1;html=1;arcSize=10;strokeWidth=5;strokeColor=#3700CC;fillColor=#6A00FF;fontColor=#ffffff;opacity=10;" parent="WIyWlLk6GJQsqaUBKTNV-1" vertex="1">
          <mxGeometry x="-800" y="2900" width="730" height="197" as="geometry" />
        </mxCell>
        <mxCell id="QqlK9VXSwcepvZ4LUtZZ-27" value="Manager" style="html=1;shape=mxgraph.er.anchor;whiteSpace=wrap;fillColor=#6A00FF;" parent="QqlK9VXSwcepvZ4LUtZZ-26" vertex="1">
          <mxGeometry x="20" width="150" height="38.91" as="geometry" />
        </mxCell>
        <mxCell id="QqlK9VXSwcepvZ4LUtZZ-34" value="" style="rounded=1;absoluteArcSize=1;html=1;arcSize=10;strokeWidth=5;strokeColor=#005700;fillColor=#008a00;fontColor=#ffffff;opacity=10;" parent="WIyWlLk6GJQsqaUBKTNV-1" vertex="1">
          <mxGeometry x="-800" y="3240" width="730" height="197" as="geometry" />
        </mxCell>
        <mxCell id="QqlK9VXSwcepvZ4LUtZZ-35" value="Controller" style="html=1;shape=mxgraph.er.anchor;whiteSpace=wrap;fillColor=#6A00FF;" parent="QqlK9VXSwcepvZ4LUtZZ-34" vertex="1">
          <mxGeometry x="20" width="150" height="38.91" as="geometry" />
        </mxCell>
        <mxCell id="QqlK9VXSwcepvZ4LUtZZ-2" value="RougeDemoController" style="rounded=0;whiteSpace=wrap;html=1;" parent="QqlK9VXSwcepvZ4LUtZZ-34" vertex="1">
          <mxGeometry x="410" y="57" width="120" height="60" as="geometry" />
        </mxCell>
        <mxCell id="3ymbGLnylsHSY1lxGV-o-17" value="&lt;h1&gt;游戏规则&lt;/h1&gt;" style="text;html=1;strokeColor=none;fillColor=none;spacing=5;spacingTop=-20;whiteSpace=wrap;overflow=hidden;rounded=0;" parent="WIyWlLk6GJQsqaUBKTNV-1" vertex="1">
          <mxGeometry x="20" y="70" width="190" height="60" as="geometry" />
        </mxCell>
        <mxCell id="EbKRutoSCoRkPuwGEuVO-4" value="PlayerFunctionBlueprintLibrary" style="swimlane;fontStyle=0;childLayout=stackLayout;horizontal=1;startSize=26;fillColor=none;horizontalStack=0;resizeParent=1;resizeParentMax=0;resizeLast=0;collapsible=1;marginBottom=0;whiteSpace=wrap;html=1;" parent="WIyWlLk6GJQsqaUBKTNV-1" vertex="1">
          <mxGeometry x="645" y="672" width="190" height="48" as="geometry" />
        </mxCell>
        <mxCell id="EbKRutoSCoRkPuwGEuVO-5" value="LoadPlayerData(): SG_Player" style="text;strokeColor=none;fillColor=none;align=left;verticalAlign=top;spacingLeft=4;spacingRight=4;overflow=hidden;rotatable=0;points=[[0,0.5],[1,0.5]];portConstraint=eastwest;whiteSpace=wrap;html=1;" parent="EbKRutoSCoRkPuwGEuVO-4" vertex="1">
          <mxGeometry y="26" width="190" height="22" as="geometry" />
        </mxCell>
        <mxCell id="EbKRutoSCoRkPuwGEuVO-6" value="UFunctionBlueprintLibrary" style="html=1;whiteSpace=wrap;" parent="WIyWlLk6GJQsqaUBKTNV-1" vertex="1">
          <mxGeometry x="650" y="530" width="180" height="50" as="geometry" />
        </mxCell>
        <mxCell id="EbKRutoSCoRkPuwGEuVO-7" value="Extends" style="endArrow=block;endSize=16;endFill=0;html=1;rounded=0;exitX=0.5;exitY=0;exitDx=0;exitDy=0;entryX=0.5;entryY=1;entryDx=0;entryDy=0;" parent="WIyWlLk6GJQsqaUBKTNV-1" source="EbKRutoSCoRkPuwGEuVO-4" target="EbKRutoSCoRkPuwGEuVO-6" edge="1">
          <mxGeometry width="160" relative="1" as="geometry">
            <mxPoint x="745" y="632" as="sourcePoint" />
            <mxPoint x="905" y="632" as="targetPoint" />
          </mxGeometry>
        </mxCell>
        <mxCell id="EbKRutoSCoRkPuwGEuVO-8" value="BasePlayerState" style="swimlane;fontStyle=1;align=center;verticalAlign=top;childLayout=stackLayout;horizontal=1;startSize=26;horizontalStack=0;resizeParent=1;resizeParentMax=0;resizeLast=0;collapsible=1;marginBottom=0;whiteSpace=wrap;html=1;" parent="WIyWlLk6GJQsqaUBKTNV-1" vertex="1">
          <mxGeometry x="1020" y="660" width="160" height="86" as="geometry" />
        </mxCell>
        <mxCell id="EbKRutoSCoRkPuwGEuVO-9" value="GoldCount:int32" style="text;strokeColor=none;fillColor=none;align=left;verticalAlign=top;spacingLeft=4;spacingRight=4;overflow=hidden;rotatable=0;points=[[0,0.5],[1,0.5]];portConstraint=eastwest;whiteSpace=wrap;html=1;" parent="EbKRutoSCoRkPuwGEuVO-8" vertex="1">
          <mxGeometry y="26" width="160" height="26" as="geometry" />
        </mxCell>
        <mxCell id="EbKRutoSCoRkPuwGEuVO-10" value="" style="line;strokeWidth=1;fillColor=none;align=left;verticalAlign=middle;spacingTop=-1;spacingLeft=3;spacingRight=3;rotatable=0;labelPosition=right;points=[];portConstraint=eastwest;strokeColor=inherit;" parent="EbKRutoSCoRkPuwGEuVO-8" vertex="1">
          <mxGeometry y="52" width="160" height="8" as="geometry" />
        </mxCell>
        <mxCell id="EbKRutoSCoRkPuwGEuVO-11" value="+ CallGameSave: void" style="text;strokeColor=none;fillColor=none;align=left;verticalAlign=top;spacingLeft=4;spacingRight=4;overflow=hidden;rotatable=0;points=[[0,0.5],[1,0.5]];portConstraint=eastwest;whiteSpace=wrap;html=1;" parent="EbKRutoSCoRkPuwGEuVO-8" vertex="1">
          <mxGeometry y="60" width="160" height="26" as="geometry" />
        </mxCell>
        <mxCell id="EbKRutoSCoRkPuwGEuVO-12" value="PlayerState" style="html=1;whiteSpace=wrap;" parent="WIyWlLk6GJQsqaUBKTNV-1" vertex="1">
          <mxGeometry x="1045" y="520" width="110" height="50" as="geometry" />
        </mxCell>
        <mxCell id="EbKRutoSCoRkPuwGEuVO-13" value="Extends" style="endArrow=block;endSize=16;endFill=0;html=1;rounded=0;exitX=0.5;exitY=0;exitDx=0;exitDy=0;entryX=0.5;entryY=1;entryDx=0;entryDy=0;" parent="WIyWlLk6GJQsqaUBKTNV-1" source="EbKRutoSCoRkPuwGEuVO-8" target="EbKRutoSCoRkPuwGEuVO-12" edge="1">
          <mxGeometry width="160" relative="1" as="geometry">
            <mxPoint x="1095" y="630" as="sourcePoint" />
            <mxPoint x="1255" y="630" as="targetPoint" />
          </mxGeometry>
        </mxCell>
        <mxCell id="EbKRutoSCoRkPuwGEuVO-14" value="" style="endArrow=open;endFill=1;endSize=12;html=1;rounded=0;exitX=0;exitY=0.5;exitDx=0;exitDy=0;entryX=1.009;entryY=0.106;entryDx=0;entryDy=0;entryPerimeter=0;" parent="WIyWlLk6GJQsqaUBKTNV-1" source="EbKRutoSCoRkPuwGEuVO-9" target="EbKRutoSCoRkPuwGEuVO-5" edge="1">
          <mxGeometry width="160" relative="1" as="geometry">
            <mxPoint x="935" y="720" as="sourcePoint" />
            <mxPoint x="1095" y="720" as="targetPoint" />
          </mxGeometry>
        </mxCell>
        <mxCell id="EbKRutoSCoRkPuwGEuVO-15" value="«interface»&lt;br&gt;&lt;b&gt;PlayerStateManager&lt;/b&gt;" style="html=1;whiteSpace=wrap;" parent="WIyWlLk6GJQsqaUBKTNV-1" vertex="1">
          <mxGeometry x="1435" y="696" width="153" height="50" as="geometry" />
        </mxCell>
        <mxCell id="EbKRutoSCoRkPuwGEuVO-16" value="" style="endArrow=block;dashed=1;endFill=0;endSize=12;html=1;rounded=0;exitX=0.984;exitY=1.224;exitDx=0;exitDy=0;exitPerimeter=0;entryX=0;entryY=0.5;entryDx=0;entryDy=0;" parent="WIyWlLk6GJQsqaUBKTNV-1" source="EbKRutoSCoRkPuwGEuVO-9" target="EbKRutoSCoRkPuwGEuVO-15" edge="1">
          <mxGeometry width="160" relative="1" as="geometry">
            <mxPoint x="1255" y="740" as="sourcePoint" />
            <mxPoint x="1415" y="740" as="targetPoint" />
          </mxGeometry>
        </mxCell>
        <mxCell id="EbKRutoSCoRkPuwGEuVO-17" value="Game_Manager" style="swimlane;fontStyle=1;align=center;verticalAlign=top;childLayout=stackLayout;horizontal=1;startSize=26;horizontalStack=0;resizeParent=1;resizeParentMax=0;resizeLast=0;collapsible=1;marginBottom=0;whiteSpace=wrap;html=1;" parent="WIyWlLk6GJQsqaUBKTNV-1" vertex="1">
          <mxGeometry x="10" y="720" width="230" height="266" as="geometry" />
        </mxCell>
        <mxCell id="EbKRutoSCoRkPuwGEuVO-18" value="+ field: type" style="text;strokeColor=none;fillColor=none;align=left;verticalAlign=top;spacingLeft=4;spacingRight=4;overflow=hidden;rotatable=0;points=[[0,0.5],[1,0.5]];portConstraint=eastwest;whiteSpace=wrap;html=1;" parent="EbKRutoSCoRkPuwGEuVO-17" vertex="1">
          <mxGeometry y="26" width="230" height="26" as="geometry" />
        </mxCell>
        <mxCell id="EbKRutoSCoRkPuwGEuVO-19" value="" style="line;strokeWidth=1;fillColor=none;align=left;verticalAlign=middle;spacingTop=-1;spacingLeft=3;spacingRight=3;rotatable=0;labelPosition=right;points=[];portConstraint=eastwest;strokeColor=inherit;" parent="EbKRutoSCoRkPuwGEuVO-17" vertex="1">
          <mxGeometry y="52" width="230" height="8" as="geometry" />
        </mxCell>
        <mxCell id="EbKRutoSCoRkPuwGEuVO-20" value="+ UpdateEnemyWave(): void" style="text;strokeColor=none;fillColor=none;align=left;verticalAlign=top;spacingLeft=4;spacingRight=4;overflow=hidden;rotatable=0;points=[[0,0.5],[1,0.5]];portConstraint=eastwest;whiteSpace=wrap;html=1;" parent="EbKRutoSCoRkPuwGEuVO-17" vertex="1">
          <mxGeometry y="60" width="230" height="26" as="geometry" />
        </mxCell>
        <mxCell id="y4eKz2zCTpCm1CE301-y-2" value="+ AddXP(): void" style="text;strokeColor=none;fillColor=none;align=left;verticalAlign=top;spacingLeft=4;spacingRight=4;overflow=hidden;rotatable=0;points=[[0,0.5],[1,0.5]];portConstraint=eastwest;whiteSpace=wrap;html=1;" parent="EbKRutoSCoRkPuwGEuVO-17" vertex="1">
          <mxGeometry y="86" width="230" height="30" as="geometry" />
        </mxCell>
        <mxCell id="y4eKz2zCTpCm1CE301-y-36" value="+ GameSetup(): void" style="text;strokeColor=none;fillColor=none;align=left;verticalAlign=top;spacingLeft=4;spacingRight=4;overflow=hidden;rotatable=0;points=[[0,0.5],[1,0.5]];portConstraint=eastwest;whiteSpace=wrap;html=1;" parent="EbKRutoSCoRkPuwGEuVO-17" vertex="1">
          <mxGeometry y="116" width="230" height="30" as="geometry" />
        </mxCell>
        <mxCell id="y4eKz2zCTpCm1CE301-y-1" value="+ PrepareLevelUp(): void" style="text;strokeColor=none;fillColor=none;align=left;verticalAlign=top;spacingLeft=4;spacingRight=4;overflow=hidden;rotatable=0;points=[[0,0.5],[1,0.5]];portConstraint=eastwest;whiteSpace=wrap;html=1;" parent="EbKRutoSCoRkPuwGEuVO-17" vertex="1">
          <mxGeometry y="146" width="230" height="30" as="geometry" />
        </mxCell>
        <mxCell id="y4eKz2zCTpCm1CE301-y-37" value="+ BuildPlayerArray(): void" style="text;strokeColor=none;fillColor=none;align=left;verticalAlign=top;spacingLeft=4;spacingRight=4;overflow=hidden;rotatable=0;points=[[0,0.5],[1,0.5]];portConstraint=eastwest;whiteSpace=wrap;html=1;" parent="EbKRutoSCoRkPuwGEuVO-17" vertex="1">
          <mxGeometry y="176" width="230" height="30" as="geometry" />
        </mxCell>
        <mxCell id="y4eKz2zCTpCm1CE301-y-38" value="+ CreateXPTable(): void" style="text;strokeColor=none;fillColor=none;align=left;verticalAlign=top;spacingLeft=4;spacingRight=4;overflow=hidden;rotatable=0;points=[[0,0.5],[1,0.5]];portConstraint=eastwest;whiteSpace=wrap;html=1;" parent="EbKRutoSCoRkPuwGEuVO-17" vertex="1">
          <mxGeometry y="206" width="230" height="30" as="geometry" />
        </mxCell>
        <mxCell id="y4eKz2zCTpCm1CE301-y-40" value="+SpawnSetup(): void" style="text;strokeColor=none;fillColor=none;align=left;verticalAlign=top;spacingLeft=4;spacingRight=4;overflow=hidden;rotatable=0;points=[[0,0.5],[1,0.5]];portConstraint=eastwest;whiteSpace=wrap;html=1;" parent="EbKRutoSCoRkPuwGEuVO-17" vertex="1">
          <mxGeometry y="236" width="230" height="30" as="geometry" />
        </mxCell>
        <mxCell id="EbKRutoSCoRkPuwGEuVO-21" value="AActor" style="html=1;whiteSpace=wrap;" parent="WIyWlLk6GJQsqaUBKTNV-1" vertex="1">
          <mxGeometry x="70" y="570" width="110" height="50" as="geometry" />
        </mxCell>
        <mxCell id="EbKRutoSCoRkPuwGEuVO-22" value="Extends" style="endArrow=block;endSize=16;endFill=0;html=1;rounded=0;exitX=0.5;exitY=0;exitDx=0;exitDy=0;" parent="WIyWlLk6GJQsqaUBKTNV-1" source="EbKRutoSCoRkPuwGEuVO-17" target="EbKRutoSCoRkPuwGEuVO-21" edge="1">
          <mxGeometry width="160" relative="1" as="geometry">
            <mxPoint x="75" y="760" as="sourcePoint" />
            <mxPoint x="235" y="760" as="targetPoint" />
          </mxGeometry>
        </mxCell>
        <mxCell id="EbKRutoSCoRkPuwGEuVO-23" value="AActor" style="html=1;whiteSpace=wrap;" parent="WIyWlLk6GJQsqaUBKTNV-1" vertex="1">
          <mxGeometry x="1770" y="530" width="110" height="50" as="geometry" />
        </mxCell>
        <mxCell id="EbKRutoSCoRkPuwGEuVO-24" value="BP_Base_Explosion" style="swimlane;fontStyle=1;align=center;verticalAlign=top;childLayout=stackLayout;horizontal=1;startSize=26;horizontalStack=0;resizeParent=1;resizeParentMax=0;resizeLast=0;collapsible=1;marginBottom=0;whiteSpace=wrap;html=1;" parent="WIyWlLk6GJQsqaUBKTNV-1" vertex="1">
          <mxGeometry x="1750" y="680" width="160" height="60" as="geometry" />
        </mxCell>
        <mxCell id="EbKRutoSCoRkPuwGEuVO-25" value="" style="line;strokeWidth=1;fillColor=none;align=left;verticalAlign=middle;spacingTop=-1;spacingLeft=3;spacingRight=3;rotatable=0;labelPosition=right;points=[];portConstraint=eastwest;strokeColor=inherit;" parent="EbKRutoSCoRkPuwGEuVO-24" vertex="1">
          <mxGeometry y="26" width="160" height="8" as="geometry" />
        </mxCell>
        <mxCell id="EbKRutoSCoRkPuwGEuVO-26" value="+ Begin() : Event" style="text;strokeColor=none;fillColor=none;align=left;verticalAlign=top;spacingLeft=4;spacingRight=4;overflow=hidden;rotatable=0;points=[[0,0.5],[1,0.5]];portConstraint=eastwest;whiteSpace=wrap;html=1;" parent="EbKRutoSCoRkPuwGEuVO-24" vertex="1">
          <mxGeometry y="34" width="160" height="26" as="geometry" />
        </mxCell>
        <mxCell id="EbKRutoSCoRkPuwGEuVO-27" value="Extends" style="endArrow=block;endSize=16;endFill=0;html=1;rounded=0;exitX=0.5;exitY=0;exitDx=0;exitDy=0;entryX=0.5;entryY=1;entryDx=0;entryDy=0;" parent="WIyWlLk6GJQsqaUBKTNV-1" source="EbKRutoSCoRkPuwGEuVO-24" target="EbKRutoSCoRkPuwGEuVO-23" edge="1">
          <mxGeometry width="160" relative="1" as="geometry">
            <mxPoint x="1838" y="675" as="sourcePoint" />
            <mxPoint x="1998" y="675" as="targetPoint" />
          </mxGeometry>
        </mxCell>
        <mxCell id="EbKRutoSCoRkPuwGEuVO-28" value="BP_Base_Character" style="swimlane;fontStyle=1;align=center;verticalAlign=top;childLayout=stackLayout;horizontal=1;startSize=26;horizontalStack=0;resizeParent=1;resizeParentMax=0;resizeLast=0;collapsible=1;marginBottom=0;whiteSpace=wrap;html=1;" parent="WIyWlLk6GJQsqaUBKTNV-1" vertex="1">
          <mxGeometry x="1428" y="1012" width="160" height="86" as="geometry" />
        </mxCell>
        <mxCell id="EbKRutoSCoRkPuwGEuVO-29" value="+ field: type" style="text;strokeColor=none;fillColor=none;align=left;verticalAlign=top;spacingLeft=4;spacingRight=4;overflow=hidden;rotatable=0;points=[[0,0.5],[1,0.5]];portConstraint=eastwest;whiteSpace=wrap;html=1;" parent="EbKRutoSCoRkPuwGEuVO-28" vertex="1">
          <mxGeometry y="26" width="160" height="26" as="geometry" />
        </mxCell>
        <mxCell id="EbKRutoSCoRkPuwGEuVO-30" value="" style="line;strokeWidth=1;fillColor=none;align=left;verticalAlign=middle;spacingTop=-1;spacingLeft=3;spacingRight=3;rotatable=0;labelPosition=right;points=[];portConstraint=eastwest;strokeColor=inherit;" parent="EbKRutoSCoRkPuwGEuVO-28" vertex="1">
          <mxGeometry y="52" width="160" height="8" as="geometry" />
        </mxCell>
        <mxCell id="EbKRutoSCoRkPuwGEuVO-31" value="+ Pause(bool, bool): void" style="text;strokeColor=none;fillColor=none;align=left;verticalAlign=top;spacingLeft=4;spacingRight=4;overflow=hidden;rotatable=0;points=[[0,0.5],[1,0.5]];portConstraint=eastwest;whiteSpace=wrap;html=1;" parent="EbKRutoSCoRkPuwGEuVO-28" vertex="1">
          <mxGeometry y="60" width="160" height="26" as="geometry" />
        </mxCell>
        <mxCell id="EbKRutoSCoRkPuwGEuVO-32" value="AChacter" style="html=1;whiteSpace=wrap;" parent="WIyWlLk6GJQsqaUBKTNV-1" vertex="1">
          <mxGeometry x="1453" y="882" width="110" height="50" as="geometry" />
        </mxCell>
        <mxCell id="EbKRutoSCoRkPuwGEuVO-33" value="Extends" style="endArrow=block;endSize=16;endFill=0;html=1;rounded=0;exitX=0.5;exitY=0;exitDx=0;exitDy=0;entryX=0.5;entryY=1;entryDx=0;entryDy=0;" parent="WIyWlLk6GJQsqaUBKTNV-1" source="EbKRutoSCoRkPuwGEuVO-28" target="EbKRutoSCoRkPuwGEuVO-32" edge="1">
          <mxGeometry width="160" relative="1" as="geometry">
            <mxPoint x="1488" y="972" as="sourcePoint" />
            <mxPoint x="1648" y="972" as="targetPoint" />
          </mxGeometry>
        </mxCell>
        <mxCell id="EbKRutoSCoRkPuwGEuVO-34" value="WB_LevelUpItems" style="swimlane;fontStyle=0;childLayout=stackLayout;horizontal=1;startSize=26;fillColor=none;horizontalStack=0;resizeParent=1;resizeParentMax=0;resizeLast=0;collapsible=1;marginBottom=0;whiteSpace=wrap;html=1;" parent="WIyWlLk6GJQsqaUBKTNV-1" vertex="1">
          <mxGeometry x="955" y="1529" width="140" height="52" as="geometry" />
        </mxCell>
        <mxCell id="EbKRutoSCoRkPuwGEuVO-38" value="WB_LevelUpMaster" style="swimlane;fontStyle=1;align=center;verticalAlign=top;childLayout=stackLayout;horizontal=1;startSize=26;horizontalStack=0;resizeParent=1;resizeParentMax=0;resizeLast=0;collapsible=1;marginBottom=0;whiteSpace=wrap;html=1;" parent="WIyWlLk6GJQsqaUBKTNV-1" vertex="1">
          <mxGeometry x="1070" y="1319" width="160" height="86" as="geometry" />
        </mxCell>
        <mxCell id="EbKRutoSCoRkPuwGEuVO-39" value="+ field: type" style="text;strokeColor=none;fillColor=none;align=left;verticalAlign=top;spacingLeft=4;spacingRight=4;overflow=hidden;rotatable=0;points=[[0,0.5],[1,0.5]];portConstraint=eastwest;whiteSpace=wrap;html=1;" parent="EbKRutoSCoRkPuwGEuVO-38" vertex="1">
          <mxGeometry y="26" width="160" height="26" as="geometry" />
        </mxCell>
        <mxCell id="EbKRutoSCoRkPuwGEuVO-40" value="" style="line;strokeWidth=1;fillColor=none;align=left;verticalAlign=middle;spacingTop=-1;spacingLeft=3;spacingRight=3;rotatable=0;labelPosition=right;points=[];portConstraint=eastwest;strokeColor=inherit;" parent="EbKRutoSCoRkPuwGEuVO-38" vertex="1">
          <mxGeometry y="52" width="160" height="8" as="geometry" />
        </mxCell>
        <mxCell id="EbKRutoSCoRkPuwGEuVO-41" value="+ method(type): type" style="text;strokeColor=none;fillColor=none;align=left;verticalAlign=top;spacingLeft=4;spacingRight=4;overflow=hidden;rotatable=0;points=[[0,0.5],[1,0.5]];portConstraint=eastwest;whiteSpace=wrap;html=1;" parent="EbKRutoSCoRkPuwGEuVO-38" vertex="1">
          <mxGeometry y="60" width="160" height="26" as="geometry" />
        </mxCell>
        <mxCell id="EbKRutoSCoRkPuwGEuVO-43" value="" style="endArrow=diamondThin;endFill=1;endSize=24;html=1;rounded=0;exitX=0.5;exitY=0;exitDx=0;exitDy=0;entryX=0.526;entryY=1.021;entryDx=0;entryDy=0;entryPerimeter=0;" parent="WIyWlLk6GJQsqaUBKTNV-1" source="EbKRutoSCoRkPuwGEuVO-34" target="EbKRutoSCoRkPuwGEuVO-41" edge="1">
          <mxGeometry width="160" relative="1" as="geometry">
            <mxPoint x="1270" y="1479" as="sourcePoint" />
            <mxPoint x="1430" y="1479" as="targetPoint" />
          </mxGeometry>
        </mxCell>
        <mxCell id="EbKRutoSCoRkPuwGEuVO-44" value="UUserWidget" style="html=1;whiteSpace=wrap;" parent="WIyWlLk6GJQsqaUBKTNV-1" vertex="1">
          <mxGeometry x="1095" y="1169" width="110" height="50" as="geometry" />
        </mxCell>
        <mxCell id="EbKRutoSCoRkPuwGEuVO-45" value="Extends" style="endArrow=block;endSize=16;endFill=0;html=1;rounded=0;exitX=0.5;exitY=0;exitDx=0;exitDy=0;" parent="WIyWlLk6GJQsqaUBKTNV-1" source="EbKRutoSCoRkPuwGEuVO-38" target="EbKRutoSCoRkPuwGEuVO-44" edge="1">
          <mxGeometry width="160" relative="1" as="geometry">
            <mxPoint x="920" y="1319" as="sourcePoint" />
            <mxPoint x="1080" y="1319" as="targetPoint" />
          </mxGeometry>
        </mxCell>
        <mxCell id="EbKRutoSCoRkPuwGEuVO-46" value="RougeDemoPlayerController" style="swimlane;fontStyle=1;align=center;verticalAlign=top;childLayout=stackLayout;horizontal=1;startSize=26;horizontalStack=0;resizeParent=1;resizeParentMax=0;resizeLast=0;collapsible=1;marginBottom=0;whiteSpace=wrap;html=1;" parent="WIyWlLk6GJQsqaUBKTNV-1" vertex="1">
          <mxGeometry x="660" y="1319" width="260" height="190" as="geometry" />
        </mxCell>
        <mxCell id="EbKRutoSCoRkPuwGEuVO-48" value="" style="line;strokeWidth=1;fillColor=none;align=left;verticalAlign=middle;spacingTop=-1;spacingLeft=3;spacingRight=3;rotatable=0;labelPosition=right;points=[];portConstraint=eastwest;strokeColor=inherit;" parent="EbKRutoSCoRkPuwGEuVO-46" vertex="1">
          <mxGeometry y="26" width="260" height="8" as="geometry" />
        </mxCell>
        <mxCell id="EbKRutoSCoRkPuwGEuVO-49" value="+ Prepare Level Up(): void" style="text;strokeColor=none;fillColor=none;align=left;verticalAlign=top;spacingLeft=4;spacingRight=4;overflow=hidden;rotatable=0;points=[[0,0.5],[1,0.5]];portConstraint=eastwest;whiteSpace=wrap;html=1;" parent="EbKRutoSCoRkPuwGEuVO-46" vertex="1">
          <mxGeometry y="34" width="260" height="26" as="geometry" />
        </mxCell>
        <mxCell id="EbKRutoSCoRkPuwGEuVO-53" value="+ Execute Level Up(): void" style="text;strokeColor=none;fillColor=none;align=left;verticalAlign=top;spacingLeft=4;spacingRight=4;overflow=hidden;rotatable=0;points=[[0,0.5],[1,0.5]];portConstraint=eastwest;whiteSpace=wrap;html=1;" parent="EbKRutoSCoRkPuwGEuVO-46" vertex="1">
          <mxGeometry y="60" width="260" height="26" as="geometry" />
        </mxCell>
        <mxCell id="EbKRutoSCoRkPuwGEuVO-63" value="+ CheckIfEvoReady(EActiveAblity): bool" style="text;strokeColor=none;fillColor=none;align=left;verticalAlign=top;spacingLeft=4;spacingRight=4;overflow=hidden;rotatable=0;points=[[0,0.5],[1,0.5]];portConstraint=eastwest;whiteSpace=wrap;html=1;" parent="EbKRutoSCoRkPuwGEuVO-46" vertex="1">
          <mxGeometry y="86" width="260" height="26" as="geometry" />
        </mxCell>
        <mxCell id="EbKRutoSCoRkPuwGEuVO-64" value="+ SetupPlayer: void" style="text;strokeColor=none;fillColor=none;align=left;verticalAlign=top;spacingLeft=4;spacingRight=4;overflow=hidden;rotatable=0;points=[[0,0.5],[1,0.5]];portConstraint=eastwest;whiteSpace=wrap;html=1;" parent="EbKRutoSCoRkPuwGEuVO-46" vertex="1">
          <mxGeometry y="112" width="260" height="26" as="geometry" />
        </mxCell>
        <mxCell id="EbKRutoSCoRkPuwGEuVO-54" value="+ SetStartingAbility: void" style="text;strokeColor=none;fillColor=none;align=left;verticalAlign=top;spacingLeft=4;spacingRight=4;overflow=hidden;rotatable=0;points=[[0,0.5],[1,0.5]];portConstraint=eastwest;whiteSpace=wrap;html=1;" parent="EbKRutoSCoRkPuwGEuVO-46" vertex="1">
          <mxGeometry y="138" width="260" height="26" as="geometry" />
        </mxCell>
        <mxCell id="y4eKz2zCTpCm1CE301-y-39" value="+ UpdateCharacterUI(float,int32): void" style="text;strokeColor=none;fillColor=none;align=left;verticalAlign=top;spacingLeft=4;spacingRight=4;overflow=hidden;rotatable=0;points=[[0,0.5],[1,0.5]];portConstraint=eastwest;whiteSpace=wrap;html=1;" parent="EbKRutoSCoRkPuwGEuVO-46" vertex="1">
          <mxGeometry y="164" width="260" height="26" as="geometry" />
        </mxCell>
        <mxCell id="EbKRutoSCoRkPuwGEuVO-50" value="PlayerController" style="html=1;whiteSpace=wrap;" parent="WIyWlLk6GJQsqaUBKTNV-1" vertex="1">
          <mxGeometry x="735" y="1169" width="110" height="50" as="geometry" />
        </mxCell>
        <mxCell id="EbKRutoSCoRkPuwGEuVO-51" value="Extends" style="endArrow=block;endSize=16;endFill=0;html=1;rounded=0;exitX=0.5;exitY=0;exitDx=0;exitDy=0;entryX=0.5;entryY=1;entryDx=0;entryDy=0;" parent="WIyWlLk6GJQsqaUBKTNV-1" source="EbKRutoSCoRkPuwGEuVO-46" target="EbKRutoSCoRkPuwGEuVO-50" edge="1">
          <mxGeometry width="160" relative="1" as="geometry">
            <mxPoint x="840" y="1279" as="sourcePoint" />
            <mxPoint x="1000" y="1279" as="targetPoint" />
          </mxGeometry>
        </mxCell>
        <mxCell id="EbKRutoSCoRkPuwGEuVO-52" value="Use" style="endArrow=open;endSize=12;dashed=1;html=1;rounded=0;exitX=1;exitY=0.5;exitDx=0;exitDy=0;entryX=-0.023;entryY=0.923;entryDx=0;entryDy=0;entryPerimeter=0;" parent="WIyWlLk6GJQsqaUBKTNV-1" source="EbKRutoSCoRkPuwGEuVO-49" target="EbKRutoSCoRkPuwGEuVO-39" edge="1">
          <mxGeometry width="160" relative="1" as="geometry">
            <mxPoint x="890" y="1439" as="sourcePoint" />
            <mxPoint x="1050" y="1439" as="targetPoint" />
          </mxGeometry>
        </mxCell>
        <mxCell id="EbKRutoSCoRkPuwGEuVO-55" value="EActiveAbility" style="swimlane;fontStyle=0;childLayout=stackLayout;horizontal=1;startSize=26;fillColor=none;horizontalStack=0;resizeParent=1;resizeParentMax=0;resizeLast=0;collapsible=1;marginBottom=0;whiteSpace=wrap;html=1;" parent="WIyWlLk6GJQsqaUBKTNV-1" vertex="1">
          <mxGeometry x="410" y="1399" width="140" height="130" as="geometry" />
        </mxCell>
        <mxCell id="EbKRutoSCoRkPuwGEuVO-56" value="+ Hammer" style="text;strokeColor=none;fillColor=none;align=left;verticalAlign=top;spacingLeft=4;spacingRight=4;overflow=hidden;rotatable=0;points=[[0,0.5],[1,0.5]];portConstraint=eastwest;whiteSpace=wrap;html=1;" parent="EbKRutoSCoRkPuwGEuVO-55" vertex="1">
          <mxGeometry y="26" width="140" height="26" as="geometry" />
        </mxCell>
        <mxCell id="EbKRutoSCoRkPuwGEuVO-57" value="+ Frost Bolt" style="text;strokeColor=none;fillColor=none;align=left;verticalAlign=top;spacingLeft=4;spacingRight=4;overflow=hidden;rotatable=0;points=[[0,0.5],[1,0.5]];portConstraint=eastwest;whiteSpace=wrap;html=1;" parent="EbKRutoSCoRkPuwGEuVO-55" vertex="1">
          <mxGeometry y="52" width="140" height="26" as="geometry" />
        </mxCell>
        <mxCell id="EbKRutoSCoRkPuwGEuVO-58" value="+&amp;nbsp;Lightning" style="text;strokeColor=none;fillColor=none;align=left;verticalAlign=top;spacingLeft=4;spacingRight=4;overflow=hidden;rotatable=0;points=[[0,0.5],[1,0.5]];portConstraint=eastwest;whiteSpace=wrap;html=1;" parent="EbKRutoSCoRkPuwGEuVO-55" vertex="1">
          <mxGeometry y="78" width="140" height="26" as="geometry" />
        </mxCell>
        <mxCell id="EbKRutoSCoRkPuwGEuVO-59" value="+&amp;nbsp;Fireball" style="text;strokeColor=none;fillColor=none;align=left;verticalAlign=top;spacingLeft=4;spacingRight=4;overflow=hidden;rotatable=0;points=[[0,0.5],[1,0.5]];portConstraint=eastwest;whiteSpace=wrap;html=1;" parent="EbKRutoSCoRkPuwGEuVO-55" vertex="1">
          <mxGeometry y="104" width="140" height="26" as="geometry" />
        </mxCell>
        <mxCell id="EbKRutoSCoRkPuwGEuVO-60" value="" style="endArrow=open;endFill=1;endSize=12;html=1;rounded=0;exitX=1.017;exitY=0.806;exitDx=0;exitDy=0;exitPerimeter=0;entryX=0;entryY=0.5;entryDx=0;entryDy=0;" parent="WIyWlLk6GJQsqaUBKTNV-1" source="EbKRutoSCoRkPuwGEuVO-57" target="EbKRutoSCoRkPuwGEuVO-54" edge="1">
          <mxGeometry width="160" relative="1" as="geometry">
            <mxPoint x="460" y="1429" as="sourcePoint" />
            <mxPoint x="620" y="1429" as="targetPoint" />
          </mxGeometry>
        </mxCell>
        <mxCell id="EbKRutoSCoRkPuwGEuVO-61" value="WB_LevelUpCard" style="swimlane;fontStyle=0;childLayout=stackLayout;horizontal=1;startSize=30;fillColor=none;horizontalStack=0;resizeParent=1;resizeParentMax=0;resizeLast=0;collapsible=1;marginBottom=0;whiteSpace=wrap;html=1;" parent="WIyWlLk6GJQsqaUBKTNV-1" vertex="1">
          <mxGeometry x="1195" y="1529" width="140" height="52" as="geometry" />
        </mxCell>
        <mxCell id="EbKRutoSCoRkPuwGEuVO-62" value="" style="endArrow=diamondThin;endFill=1;endSize=24;html=1;rounded=0;exitX=0.5;exitY=0;exitDx=0;exitDy=0;entryX=0.511;entryY=1.074;entryDx=0;entryDy=0;entryPerimeter=0;" parent="WIyWlLk6GJQsqaUBKTNV-1" source="EbKRutoSCoRkPuwGEuVO-61" target="EbKRutoSCoRkPuwGEuVO-41" edge="1">
          <mxGeometry width="160" relative="1" as="geometry">
            <mxPoint x="1260" y="1489" as="sourcePoint" />
            <mxPoint x="1420" y="1489" as="targetPoint" />
          </mxGeometry>
        </mxCell>
        <mxCell id="EbKRutoSCoRkPuwGEuVO-65" value="&lt;p style=&quot;margin:0px;margin-top:4px;text-align:center;&quot;&gt;&lt;i&gt;&amp;lt;&amp;lt;Interface&amp;gt;&amp;gt;&lt;/i&gt;&lt;br&gt;&lt;b&gt;IControllerManager&lt;/b&gt;&lt;/p&gt;&lt;p style=&quot;margin:0px;margin-left:4px;&quot;&gt;&lt;br&gt;&lt;/p&gt;&lt;p style=&quot;margin:0px;margin-left:4px;&quot;&gt;+ OnLevelUp() : void&lt;/p&gt;&lt;p style=&quot;margin:0px;margin-left:4px;&quot;&gt;+&amp;nbsp;UpdateTime() : void&lt;/p&gt;&lt;p style=&quot;margin:0px;margin-left:4px;&quot;&gt;+&amp;nbsp;UpdateLevelBar(float, in32) : void&lt;/p&gt;" style="verticalAlign=top;align=left;overflow=fill;fontSize=12;fontFamily=Helvetica;html=1;whiteSpace=wrap;" parent="WIyWlLk6GJQsqaUBKTNV-1" vertex="1">
          <mxGeometry x="340" y="1684" width="230" height="140" as="geometry" />
        </mxCell>
        <mxCell id="EbKRutoSCoRkPuwGEuVO-66" value="" style="endArrow=block;dashed=1;endFill=0;endSize=12;html=1;rounded=0;exitX=0;exitY=0.5;exitDx=0;exitDy=0;entryX=0.5;entryY=0;entryDx=0;entryDy=0;" parent="WIyWlLk6GJQsqaUBKTNV-1" source="y4eKz2zCTpCm1CE301-y-39" target="EbKRutoSCoRkPuwGEuVO-65" edge="1">
          <mxGeometry width="160" relative="1" as="geometry">
            <mxPoint x="1220" y="1669" as="sourcePoint" />
            <mxPoint x="1380" y="1669" as="targetPoint" />
          </mxGeometry>
        </mxCell>
        <mxCell id="y4eKz2zCTpCm1CE301-y-0" value="&lt;h1&gt;&lt;br&gt;&lt;/h1&gt;&lt;p&gt;当人物经验满的时候，进行升级，并选择技能&lt;/p&gt;" style="text;html=1;strokeColor=none;fillColor=none;spacing=5;spacingTop=-20;whiteSpace=wrap;overflow=hidden;rounded=0;" parent="WIyWlLk6GJQsqaUBKTNV-1" vertex="1">
          <mxGeometry x="-270" y="260" width="190" height="120" as="geometry" />
        </mxCell>
        <mxCell id="y4eKz2zCTpCm1CE301-y-3" value="Class" style="text;html=1;strokeColor=none;fillColor=none;align=center;verticalAlign=middle;whiteSpace=wrap;rounded=0;" parent="WIyWlLk6GJQsqaUBKTNV-1" vertex="1">
          <mxGeometry x="60" y="310" width="60" height="30" as="geometry" />
        </mxCell>
        <mxCell id="y4eKz2zCTpCm1CE301-y-4" value="FlowChart" style="text;html=1;strokeColor=none;fillColor=none;align=center;verticalAlign=middle;whiteSpace=wrap;rounded=0;" parent="WIyWlLk6GJQsqaUBKTNV-1" vertex="1">
          <mxGeometry x="-675" y="290" width="60" height="30" as="geometry" />
        </mxCell>
        <mxCell id="y4eKz2zCTpCm1CE301-y-5" value="Use" style="endArrow=open;endSize=12;dashed=1;html=1;rounded=0;exitX=1;exitY=0.5;exitDx=0;exitDy=0;entryX=0;entryY=0.5;entryDx=0;entryDy=0;" parent="WIyWlLk6GJQsqaUBKTNV-1" source="EbKRutoSCoRkPuwGEuVO-20" target="EbKRutoSCoRkPuwGEuVO-63" edge="1">
          <mxGeometry width="160" relative="1" as="geometry">
            <mxPoint x="190" y="1110" as="sourcePoint" />
            <mxPoint x="350" y="1110" as="targetPoint" />
          </mxGeometry>
        </mxCell>
        <mxCell id="y4eKz2zCTpCm1CE301-y-9" style="edgeStyle=orthogonalEdgeStyle;rounded=0;orthogonalLoop=1;jettySize=auto;html=1;" parent="WIyWlLk6GJQsqaUBKTNV-1" source="y4eKz2zCTpCm1CE301-y-7" edge="1">
          <mxGeometry relative="1" as="geometry">
            <mxPoint x="-450" y="590" as="targetPoint" />
          </mxGeometry>
        </mxCell>
        <mxCell id="y4eKz2zCTpCm1CE301-y-7" value="开始" style="rounded=1;whiteSpace=wrap;html=1;" parent="WIyWlLk6GJQsqaUBKTNV-1" vertex="1">
          <mxGeometry x="-510" y="345" width="120" height="60" as="geometry" />
        </mxCell>
        <mxCell id="y4eKz2zCTpCm1CE301-y-24" style="edgeStyle=orthogonalEdgeStyle;rounded=0;orthogonalLoop=1;jettySize=auto;html=1;" parent="WIyWlLk6GJQsqaUBKTNV-1" source="y4eKz2zCTpCm1CE301-y-8" target="y4eKz2zCTpCm1CE301-y-21" edge="1">
          <mxGeometry relative="1" as="geometry" />
        </mxCell>
        <mxCell id="y4eKz2zCTpCm1CE301-y-8" value="Translate XP()" style="rounded=0;whiteSpace=wrap;html=1;" parent="WIyWlLk6GJQsqaUBKTNV-1" vertex="1">
          <mxGeometry x="-260" y="1098" width="120" height="60" as="geometry" />
        </mxCell>
        <mxCell id="y4eKz2zCTpCm1CE301-y-12" style="edgeStyle=orthogonalEdgeStyle;rounded=0;orthogonalLoop=1;jettySize=auto;html=1;entryX=0.5;entryY=0;entryDx=0;entryDy=0;" parent="WIyWlLk6GJQsqaUBKTNV-1" source="y4eKz2zCTpCm1CE301-y-10" edge="1">
          <mxGeometry relative="1" as="geometry">
            <mxPoint x="-450" y="698" as="targetPoint" />
          </mxGeometry>
        </mxCell>
        <mxCell id="y4eKz2zCTpCm1CE301-y-10" value="Spawn AI" style="rounded=1;whiteSpace=wrap;html=1;" parent="WIyWlLk6GJQsqaUBKTNV-1" vertex="1">
          <mxGeometry x="-510" y="540" width="120" height="60" as="geometry" />
        </mxCell>
        <mxCell id="y4eKz2zCTpCm1CE301-y-16" style="edgeStyle=orthogonalEdgeStyle;rounded=0;orthogonalLoop=1;jettySize=auto;html=1;" parent="WIyWlLk6GJQsqaUBKTNV-1" source="y4eKz2zCTpCm1CE301-y-13" target="y4eKz2zCTpCm1CE301-y-15" edge="1">
          <mxGeometry relative="1" as="geometry">
            <Array as="points">
              <mxPoint x="-450" y="800" />
              <mxPoint x="-450" y="800" />
            </Array>
          </mxGeometry>
        </mxCell>
        <mxCell id="y4eKz2zCTpCm1CE301-y-31" value="Yes" style="edgeLabel;html=1;align=center;verticalAlign=middle;resizable=0;points=[];" parent="y4eKz2zCTpCm1CE301-y-16" vertex="1" connectable="0">
          <mxGeometry x="-0.2531" relative="1" as="geometry">
            <mxPoint as="offset" />
          </mxGeometry>
        </mxCell>
        <mxCell id="y4eKz2zCTpCm1CE301-y-19" style="edgeStyle=orthogonalEdgeStyle;rounded=0;orthogonalLoop=1;jettySize=auto;html=1;exitX=1;exitY=0.5;exitDx=0;exitDy=0;entryX=0.5;entryY=0;entryDx=0;entryDy=0;" parent="WIyWlLk6GJQsqaUBKTNV-1" source="y4eKz2zCTpCm1CE301-y-13" target="y4eKz2zCTpCm1CE301-y-17" edge="1">
          <mxGeometry relative="1" as="geometry" />
        </mxCell>
        <mxCell id="y4eKz2zCTpCm1CE301-y-32" value="No" style="edgeLabel;html=1;align=center;verticalAlign=middle;resizable=0;points=[];" parent="y4eKz2zCTpCm1CE301-y-19" vertex="1" connectable="0">
          <mxGeometry x="-0.4792" y="2" relative="1" as="geometry">
            <mxPoint as="offset" />
          </mxGeometry>
        </mxCell>
        <mxCell id="y4eKz2zCTpCm1CE301-y-13" value="AI Is Alive?" style="rhombus;whiteSpace=wrap;html=1;" parent="WIyWlLk6GJQsqaUBKTNV-1" vertex="1">
          <mxGeometry x="-490" y="696" width="80" height="80" as="geometry" />
        </mxCell>
        <mxCell id="y4eKz2zCTpCm1CE301-y-23" style="edgeStyle=orthogonalEdgeStyle;rounded=0;orthogonalLoop=1;jettySize=auto;html=1;" parent="WIyWlLk6GJQsqaUBKTNV-1" source="y4eKz2zCTpCm1CE301-y-15" target="y4eKz2zCTpCm1CE301-y-22" edge="1">
          <mxGeometry relative="1" as="geometry" />
        </mxCell>
        <mxCell id="y4eKz2zCTpCm1CE301-y-15" value="AttackPlayer()" style="rounded=0;whiteSpace=wrap;html=1;" parent="WIyWlLk6GJQsqaUBKTNV-1" vertex="1">
          <mxGeometry x="-510" y="830" width="120" height="60" as="geometry" />
        </mxCell>
        <mxCell id="y4eKz2zCTpCm1CE301-y-20" style="edgeStyle=orthogonalEdgeStyle;rounded=0;orthogonalLoop=1;jettySize=auto;html=1;" parent="WIyWlLk6GJQsqaUBKTNV-1" source="y4eKz2zCTpCm1CE301-y-33" target="y4eKz2zCTpCm1CE301-y-8" edge="1">
          <mxGeometry relative="1" as="geometry">
            <Array as="points">
              <mxPoint x="-200" y="1070" />
              <mxPoint x="-200" y="1070" />
            </Array>
          </mxGeometry>
        </mxCell>
        <mxCell id="y4eKz2zCTpCm1CE301-y-35" value="Yes" style="edgeLabel;html=1;align=center;verticalAlign=middle;resizable=0;points=[];" parent="y4eKz2zCTpCm1CE301-y-20" vertex="1" connectable="0">
          <mxGeometry x="-0.1167" y="3" relative="1" as="geometry">
            <mxPoint x="-3" y="-1" as="offset" />
          </mxGeometry>
        </mxCell>
        <mxCell id="y4eKz2zCTpCm1CE301-y-17" value="Spawn Soul()" style="rounded=0;whiteSpace=wrap;html=1;" parent="WIyWlLk6GJQsqaUBKTNV-1" vertex="1">
          <mxGeometry x="-260" y="830" width="120" height="60" as="geometry" />
        </mxCell>
        <mxCell id="y4eKz2zCTpCm1CE301-y-25" style="edgeStyle=orthogonalEdgeStyle;rounded=0;orthogonalLoop=1;jettySize=auto;html=1;" parent="WIyWlLk6GJQsqaUBKTNV-1" source="y4eKz2zCTpCm1CE301-y-21" edge="1">
          <mxGeometry relative="1" as="geometry">
            <mxPoint x="-200" y="1358" as="targetPoint" />
          </mxGeometry>
        </mxCell>
        <mxCell id="y4eKz2zCTpCm1CE301-y-21" value="Add XP()" style="rounded=0;whiteSpace=wrap;html=1;" parent="WIyWlLk6GJQsqaUBKTNV-1" vertex="1">
          <mxGeometry x="-260" y="1228" width="120" height="60" as="geometry" />
        </mxCell>
        <mxCell id="y4eKz2zCTpCm1CE301-y-22" value="结束" style="rounded=1;whiteSpace=wrap;html=1;" parent="WIyWlLk6GJQsqaUBKTNV-1" vertex="1">
          <mxGeometry x="-510" y="960" width="120" height="60" as="geometry" />
        </mxCell>
        <mxCell id="y4eKz2zCTpCm1CE301-y-27" style="edgeStyle=orthogonalEdgeStyle;rounded=0;orthogonalLoop=1;jettySize=auto;html=1;" parent="WIyWlLk6GJQsqaUBKTNV-1" source="y4eKz2zCTpCm1CE301-y-26" edge="1">
          <mxGeometry relative="1" as="geometry">
            <mxPoint x="-200" y="1498" as="targetPoint" />
          </mxGeometry>
        </mxCell>
        <mxCell id="y4eKz2zCTpCm1CE301-y-26" value="Prepare Level Up()" style="rounded=0;whiteSpace=wrap;html=1;" parent="WIyWlLk6GJQsqaUBKTNV-1" vertex="1">
          <mxGeometry x="-260" y="1357" width="120" height="60" as="geometry" />
        </mxCell>
        <mxCell id="y4eKz2zCTpCm1CE301-y-30" style="edgeStyle=orthogonalEdgeStyle;rounded=0;orthogonalLoop=1;jettySize=auto;html=1;" parent="WIyWlLk6GJQsqaUBKTNV-1" source="y4eKz2zCTpCm1CE301-y-28" target="y4eKz2zCTpCm1CE301-y-29" edge="1">
          <mxGeometry relative="1" as="geometry" />
        </mxCell>
        <mxCell id="y4eKz2zCTpCm1CE301-y-28" value="Execute Level Up()" style="rounded=0;whiteSpace=wrap;html=1;" parent="WIyWlLk6GJQsqaUBKTNV-1" vertex="1">
          <mxGeometry x="-260" y="1498" width="120" height="60" as="geometry" />
        </mxCell>
        <mxCell id="y4eKz2zCTpCm1CE301-y-29" value="结束" style="rounded=1;whiteSpace=wrap;html=1;" parent="WIyWlLk6GJQsqaUBKTNV-1" vertex="1">
          <mxGeometry x="-260" y="1638" width="120" height="60" as="geometry" />
        </mxCell>
        <mxCell id="y4eKz2zCTpCm1CE301-y-34" value="" style="edgeStyle=orthogonalEdgeStyle;rounded=0;orthogonalLoop=1;jettySize=auto;html=1;" parent="WIyWlLk6GJQsqaUBKTNV-1" source="y4eKz2zCTpCm1CE301-y-17" target="y4eKz2zCTpCm1CE301-y-33" edge="1">
          <mxGeometry relative="1" as="geometry">
            <mxPoint x="-200" y="890" as="sourcePoint" />
            <mxPoint x="-200" y="1098" as="targetPoint" />
          </mxGeometry>
        </mxCell>
        <mxCell id="y4eKz2zCTpCm1CE301-y-33" value="Is Pick up?" style="strokeWidth=2;html=1;shape=mxgraph.flowchart.decision;whiteSpace=wrap;" parent="WIyWlLk6GJQsqaUBKTNV-1" vertex="1">
          <mxGeometry x="-250" y="938" width="100" height="100" as="geometry" />
        </mxCell>
        <mxCell id="Z3ZPPYIRMe8P1aNuf4fK-4" style="edgeStyle=orthogonalEdgeStyle;rounded=0;orthogonalLoop=1;jettySize=auto;html=1;" parent="WIyWlLk6GJQsqaUBKTNV-1" source="Z3ZPPYIRMe8P1aNuf4fK-1" target="Z3ZPPYIRMe8P1aNuf4fK-3" edge="1">
          <mxGeometry relative="1" as="geometry" />
        </mxCell>
        <mxCell id="Z3ZPPYIRMe8P1aNuf4fK-1" value="开始" style="rounded=1;whiteSpace=wrap;html=1;" parent="WIyWlLk6GJQsqaUBKTNV-1" vertex="1">
          <mxGeometry x="-398" y="1910" width="120" height="60" as="geometry" />
        </mxCell>
        <mxCell id="Z3ZPPYIRMe8P1aNuf4fK-6" style="edgeStyle=orthogonalEdgeStyle;rounded=0;orthogonalLoop=1;jettySize=auto;html=1;" parent="WIyWlLk6GJQsqaUBKTNV-1" source="Z3ZPPYIRMe8P1aNuf4fK-3" target="Z3ZPPYIRMe8P1aNuf4fK-5" edge="1">
          <mxGeometry relative="1" as="geometry" />
        </mxCell>
        <mxCell id="Z3ZPPYIRMe8P1aNuf4fK-3" value="CreateXPTable()" style="rounded=0;whiteSpace=wrap;html=1;" parent="WIyWlLk6GJQsqaUBKTNV-1" vertex="1">
          <mxGeometry x="-398" y="2040" width="120" height="60" as="geometry" />
        </mxCell>
        <mxCell id="Z3ZPPYIRMe8P1aNuf4fK-9" style="edgeStyle=orthogonalEdgeStyle;rounded=0;orthogonalLoop=1;jettySize=auto;html=1;entryX=0.5;entryY=0;entryDx=0;entryDy=0;" parent="WIyWlLk6GJQsqaUBKTNV-1" source="Z3ZPPYIRMe8P1aNuf4fK-5" target="Z3ZPPYIRMe8P1aNuf4fK-10" edge="1">
          <mxGeometry relative="1" as="geometry">
            <mxPoint x="-338" y="2270" as="targetPoint" />
          </mxGeometry>
        </mxCell>
        <mxCell id="Z3ZPPYIRMe8P1aNuf4fK-5" value="StartTimer()" style="rounded=0;whiteSpace=wrap;html=1;" parent="WIyWlLk6GJQsqaUBKTNV-1" vertex="1">
          <mxGeometry x="-398" y="2160" width="120" height="60" as="geometry" />
        </mxCell>
        <mxCell id="Z3ZPPYIRMe8P1aNuf4fK-7" value="GameManager" style="text;html=1;strokeColor=none;fillColor=none;align=center;verticalAlign=middle;whiteSpace=wrap;rounded=0;" parent="WIyWlLk6GJQsqaUBKTNV-1" vertex="1">
          <mxGeometry x="-720" y="1925" width="130" height="30" as="geometry" />
        </mxCell>
        <mxCell id="Z3ZPPYIRMe8P1aNuf4fK-8" value="结束" style="rounded=1;whiteSpace=wrap;html=1;" parent="WIyWlLk6GJQsqaUBKTNV-1" vertex="1">
          <mxGeometry x="-398" y="2780" width="120" height="60" as="geometry" />
        </mxCell>
        <mxCell id="Z3ZPPYIRMe8P1aNuf4fK-11" style="edgeStyle=orthogonalEdgeStyle;rounded=0;orthogonalLoop=1;jettySize=auto;html=1;" parent="WIyWlLk6GJQsqaUBKTNV-1" source="Z3ZPPYIRMe8P1aNuf4fK-20" target="Z3ZPPYIRMe8P1aNuf4fK-8" edge="1">
          <mxGeometry relative="1" as="geometry" />
        </mxCell>
        <mxCell id="Z3ZPPYIRMe8P1aNuf4fK-10" value="Find All Players()" style="rounded=0;whiteSpace=wrap;html=1;" parent="WIyWlLk6GJQsqaUBKTNV-1" vertex="1">
          <mxGeometry x="-398" y="2278" width="120" height="60" as="geometry" />
        </mxCell>
        <mxCell id="Z3ZPPYIRMe8P1aNuf4fK-12" value="" style="strokeWidth=2;html=1;shape=mxgraph.flowchart.annotation_2;align=left;labelPosition=right;pointerEvents=1;" parent="WIyWlLk6GJQsqaUBKTNV-1" vertex="1">
          <mxGeometry x="-470" y="2040" width="60" height="300" as="geometry" />
        </mxCell>
        <mxCell id="Z3ZPPYIRMe8P1aNuf4fK-13" value="GameSetup" style="text;html=1;align=center;verticalAlign=middle;resizable=0;points=[];autosize=1;strokeColor=none;fillColor=none;" parent="WIyWlLk6GJQsqaUBKTNV-1" vertex="1">
          <mxGeometry x="-580" y="2175" width="90" height="30" as="geometry" />
        </mxCell>
        <mxCell id="Z3ZPPYIRMe8P1aNuf4fK-15" value="" style="edgeStyle=orthogonalEdgeStyle;rounded=0;orthogonalLoop=1;jettySize=auto;html=1;" parent="WIyWlLk6GJQsqaUBKTNV-1" source="Z3ZPPYIRMe8P1aNuf4fK-10" target="Z3ZPPYIRMe8P1aNuf4fK-14" edge="1">
          <mxGeometry relative="1" as="geometry">
            <mxPoint x="-338" y="2338" as="sourcePoint" />
            <mxPoint x="-338" y="2530" as="targetPoint" />
          </mxGeometry>
        </mxCell>
        <mxCell id="Z3ZPPYIRMe8P1aNuf4fK-14" value="Prepare Wave Elites()" style="rounded=0;whiteSpace=wrap;html=1;" parent="WIyWlLk6GJQsqaUBKTNV-1" vertex="1">
          <mxGeometry x="-398" y="2380" width="120" height="60" as="geometry" />
        </mxCell>
        <mxCell id="Z3ZPPYIRMe8P1aNuf4fK-17" value="" style="edgeStyle=orthogonalEdgeStyle;rounded=0;orthogonalLoop=1;jettySize=auto;html=1;" parent="WIyWlLk6GJQsqaUBKTNV-1" source="Z3ZPPYIRMe8P1aNuf4fK-14" target="Z3ZPPYIRMe8P1aNuf4fK-16" edge="1">
          <mxGeometry relative="1" as="geometry">
            <mxPoint x="-338" y="2440" as="sourcePoint" />
            <mxPoint x="-338" y="2670" as="targetPoint" />
          </mxGeometry>
        </mxCell>
        <mxCell id="Z3ZPPYIRMe8P1aNuf4fK-16" value="Prepare Wave Enemies()" style="rounded=0;whiteSpace=wrap;html=1;" parent="WIyWlLk6GJQsqaUBKTNV-1" vertex="1">
          <mxGeometry x="-398" y="2470" width="120" height="60" as="geometry" />
        </mxCell>
        <mxCell id="Z3ZPPYIRMe8P1aNuf4fK-19" value="" style="edgeStyle=orthogonalEdgeStyle;rounded=0;orthogonalLoop=1;jettySize=auto;html=1;" parent="WIyWlLk6GJQsqaUBKTNV-1" source="Z3ZPPYIRMe8P1aNuf4fK-16" target="Z3ZPPYIRMe8P1aNuf4fK-18" edge="1">
          <mxGeometry relative="1" as="geometry">
            <mxPoint x="-338" y="2530" as="sourcePoint" />
            <mxPoint x="-338" y="2670" as="targetPoint" />
          </mxGeometry>
        </mxCell>
        <mxCell id="Z3ZPPYIRMe8P1aNuf4fK-18" value="SpawnWave()" style="rounded=0;whiteSpace=wrap;html=1;" parent="WIyWlLk6GJQsqaUBKTNV-1" vertex="1">
          <mxGeometry x="-398" y="2560" width="120" height="60" as="geometry" />
        </mxCell>
        <mxCell id="Z3ZPPYIRMe8P1aNuf4fK-21" value="" style="edgeStyle=orthogonalEdgeStyle;rounded=0;orthogonalLoop=1;jettySize=auto;html=1;" parent="WIyWlLk6GJQsqaUBKTNV-1" source="Z3ZPPYIRMe8P1aNuf4fK-18" target="Z3ZPPYIRMe8P1aNuf4fK-20" edge="1">
          <mxGeometry relative="1" as="geometry">
            <mxPoint x="-338" y="2620" as="sourcePoint" />
            <mxPoint x="-338" y="2780" as="targetPoint" />
          </mxGeometry>
        </mxCell>
        <mxCell id="Z3ZPPYIRMe8P1aNuf4fK-20" value="IncreaseWaveIndex()" style="rounded=0;whiteSpace=wrap;html=1;" parent="WIyWlLk6GJQsqaUBKTNV-1" vertex="1">
          <mxGeometry x="-398" y="2650" width="120" height="60" as="geometry" />
        </mxCell>
        <mxCell id="Z3ZPPYIRMe8P1aNuf4fK-22" value="" style="strokeWidth=2;html=1;shape=mxgraph.flowchart.annotation_2;align=left;labelPosition=right;pointerEvents=1;" parent="WIyWlLk6GJQsqaUBKTNV-1" vertex="1">
          <mxGeometry x="-473" y="2380" width="60" height="330" as="geometry" />
        </mxCell>
        <mxCell id="Z3ZPPYIRMe8P1aNuf4fK-23" value="SpawnSetup" style="text;html=1;align=center;verticalAlign=middle;resizable=0;points=[];autosize=1;strokeColor=none;fillColor=none;" parent="WIyWlLk6GJQsqaUBKTNV-1" vertex="1">
          <mxGeometry x="-570" y="2530" width="90" height="30" as="geometry" />
        </mxCell>
        <mxCell id="Z3ZPPYIRMe8P1aNuf4fK-24" value="GameManager" style="text;html=1;align=center;verticalAlign=middle;resizable=0;points=[];autosize=1;strokeColor=none;fillColor=none;" parent="WIyWlLk6GJQsqaUBKTNV-1" vertex="1">
          <mxGeometry x="-675" y="550" width="100" height="30" as="geometry" />
        </mxCell>
        <mxCell id="Z3ZPPYIRMe8P1aNuf4fK-25" value="设置敌人刷出间隔时间和每分钟更新波索引的计时器" style="text;html=1;align=center;verticalAlign=middle;resizable=0;points=[];autosize=1;strokeColor=none;fillColor=none;" parent="WIyWlLk6GJQsqaUBKTNV-1" vertex="1">
          <mxGeometry x="-780" y="2410" width="300" height="30" as="geometry" />
        </mxCell>
        <mxCell id="QqlK9VXSwcepvZ4LUtZZ-0" value="GameMode" style="rounded=0;whiteSpace=wrap;html=1;" parent="WIyWlLk6GJQsqaUBKTNV-1" vertex="1">
          <mxGeometry x="-680" y="2937" width="120" height="60" as="geometry" />
        </mxCell>
        <mxCell id="QqlK9VXSwcepvZ4LUtZZ-10" style="edgeStyle=orthogonalEdgeStyle;rounded=0;orthogonalLoop=1;jettySize=auto;html=1;entryX=0.5;entryY=0;entryDx=0;entryDy=0;entryPerimeter=0;" parent="WIyWlLk6GJQsqaUBKTNV-1" source="QqlK9VXSwcepvZ4LUtZZ-1" target="QqlK9VXSwcepvZ4LUtZZ-11" edge="1">
          <mxGeometry relative="1" as="geometry" />
        </mxCell>
        <mxCell id="QqlK9VXSwcepvZ4LUtZZ-1" value="GameManager" style="rounded=0;whiteSpace=wrap;html=1;" parent="WIyWlLk6GJQsqaUBKTNV-1" vertex="1">
          <mxGeometry x="-390" y="2937" width="120" height="60" as="geometry" />
        </mxCell>
        <mxCell id="QqlK9VXSwcepvZ4LUtZZ-3" value="RougeCharacter" style="rounded=0;whiteSpace=wrap;html=1;" parent="WIyWlLk6GJQsqaUBKTNV-1" vertex="1">
          <mxGeometry x="-390" y="3525" width="120" height="60" as="geometry" />
        </mxCell>
        <mxCell id="QqlK9VXSwcepvZ4LUtZZ-4" value="Spawn Controller, HUD, Character,&amp;nbsp; PlayerState" style="text;html=1;strokeColor=none;fillColor=none;align=center;verticalAlign=middle;whiteSpace=wrap;rounded=0;" parent="WIyWlLk6GJQsqaUBKTNV-1" vertex="1">
          <mxGeometry x="-730" y="3017" width="230" height="30" as="geometry" />
        </mxCell>
        <mxCell id="QqlK9VXSwcepvZ4LUtZZ-8" value="" style="rounded=0;orthogonalLoop=1;jettySize=auto;html=1;endArrow=halfCircle;endFill=0;endSize=6;strokeWidth=1;sketch=0;fontSize=12;curved=1;exitX=0.5;exitY=0;exitDx=0;exitDy=0;" parent="WIyWlLk6GJQsqaUBKTNV-1" target="QqlK9VXSwcepvZ4LUtZZ-9" edge="1">
          <mxGeometry relative="1" as="geometry">
            <mxPoint x="-330" y="3077.0000000000005" as="sourcePoint" />
          </mxGeometry>
        </mxCell>
        <mxCell id="QqlK9VXSwcepvZ4LUtZZ-9" value="" style="ellipse;whiteSpace=wrap;html=1;align=center;aspect=fixed;fillColor=none;strokeColor=none;resizable=0;perimeter=centerPerimeter;rotatable=0;allowArrows=0;points=[];outlineConnect=1;" parent="WIyWlLk6GJQsqaUBKTNV-1" vertex="1">
          <mxGeometry x="-335" y="3157" width="10" height="10" as="geometry" />
        </mxCell>
        <mxCell id="QqlK9VXSwcepvZ4LUtZZ-12" value="" style="rounded=0;orthogonalLoop=1;jettySize=auto;html=1;endArrow=halfCircle;endFill=0;endSize=6;strokeWidth=1;sketch=0;fontSize=12;curved=1;exitX=0.5;exitY=0;exitDx=0;exitDy=0;" parent="WIyWlLk6GJQsqaUBKTNV-1" source="QqlK9VXSwcepvZ4LUtZZ-2" target="QqlK9VXSwcepvZ4LUtZZ-11" edge="1">
          <mxGeometry relative="1" as="geometry">
            <mxPoint x="-330" y="3362" as="sourcePoint" />
            <mxPoint x="-330" y="3242" as="targetPoint" />
          </mxGeometry>
        </mxCell>
        <mxCell id="QqlK9VXSwcepvZ4LUtZZ-16" value="RougeHUD" style="rounded=0;whiteSpace=wrap;html=1;" parent="WIyWlLk6GJQsqaUBKTNV-1" vertex="1">
          <mxGeometry x="-590" y="3525" width="120" height="60" as="geometry" />
        </mxCell>
        <mxCell id="QqlK9VXSwcepvZ4LUtZZ-18" value="GetHUD()" style="endArrow=open;endSize=12;dashed=1;html=1;rounded=0;exitX=0.5;exitY=1;exitDx=0;exitDy=0;entryX=0.5;entryY=0;entryDx=0;entryDy=0;" parent="WIyWlLk6GJQsqaUBKTNV-1" source="QqlK9VXSwcepvZ4LUtZZ-2" target="QqlK9VXSwcepvZ4LUtZZ-16" edge="1">
          <mxGeometry x="0.1374" y="6" width="160" relative="1" as="geometry">
            <mxPoint x="-470" y="3507" as="sourcePoint" />
            <mxPoint x="-310" y="3507" as="targetPoint" />
            <mxPoint as="offset" />
          </mxGeometry>
        </mxCell>
        <mxCell id="QqlK9VXSwcepvZ4LUtZZ-20" value="GetPawn()" style="endArrow=open;endSize=12;dashed=1;html=1;rounded=0;exitX=0.5;exitY=1;exitDx=0;exitDy=0;entryX=0.5;entryY=0;entryDx=0;entryDy=0;" parent="WIyWlLk6GJQsqaUBKTNV-1" source="QqlK9VXSwcepvZ4LUtZZ-2" target="QqlK9VXSwcepvZ4LUtZZ-3" edge="1">
          <mxGeometry x="0.1905" width="160" relative="1" as="geometry">
            <mxPoint x="-320" y="3432" as="sourcePoint" />
            <mxPoint x="-520" y="3535" as="targetPoint" />
            <mxPoint as="offset" />
          </mxGeometry>
        </mxCell>
        <mxCell id="QqlK9VXSwcepvZ4LUtZZ-24" value="GetOwner()" style="endArrow=open;endSize=12;dashed=1;html=1;rounded=0;exitX=0.5;exitY=0;exitDx=0;exitDy=0;entryX=0.5;entryY=1;entryDx=0;entryDy=0;" parent="WIyWlLk6GJQsqaUBKTNV-1" source="QqlK9VXSwcepvZ4LUtZZ-21" target="QqlK9VXSwcepvZ4LUtZZ-3" edge="1">
          <mxGeometry width="160" relative="1" as="geometry">
            <mxPoint x="-115" y="3635.5" as="sourcePoint" />
            <mxPoint x="-115" y="3738.5" as="targetPoint" />
          </mxGeometry>
        </mxCell>
        <mxCell id="QqlK9VXSwcepvZ4LUtZZ-25" value="" style="endArrow=diamondThin;endFill=1;endSize=24;html=1;rounded=0;exitX=0.75;exitY=0;exitDx=0;exitDy=0;entryX=0.75;entryY=1;entryDx=0;entryDy=0;" parent="WIyWlLk6GJQsqaUBKTNV-1" source="QqlK9VXSwcepvZ4LUtZZ-21" target="QqlK9VXSwcepvZ4LUtZZ-3" edge="1">
          <mxGeometry width="160" relative="1" as="geometry">
            <mxPoint x="-210" y="3667" as="sourcePoint" />
            <mxPoint x="-50" y="3667" as="targetPoint" />
          </mxGeometry>
        </mxCell>
        <mxCell id="QqlK9VXSwcepvZ4LUtZZ-11" value="«interface»&lt;br&gt;&lt;b&gt;ControllerManager&lt;/b&gt;" style="html=1;whiteSpace=wrap;" parent="WIyWlLk6GJQsqaUBKTNV-1" vertex="1">
          <mxGeometry x="-385" y="3157" width="110" height="30" as="geometry" />
        </mxCell>
        <mxCell id="c_lewcfAArgiSfq6SLHG-9" value="RougeGameMode" style="swimlane;fontStyle=1;align=center;verticalAlign=top;childLayout=stackLayout;horizontal=1;startSize=26;horizontalStack=0;resizeParent=1;resizeParentMax=0;resizeLast=0;collapsible=1;marginBottom=0;whiteSpace=wrap;html=1;" parent="WIyWlLk6GJQsqaUBKTNV-1" vertex="1">
          <mxGeometry x="270" y="1233" width="160" height="86" as="geometry" />
        </mxCell>
        <mxCell id="c_lewcfAArgiSfq6SLHG-10" value="+ bGamePaused: bool" style="text;strokeColor=none;fillColor=none;align=left;verticalAlign=top;spacingLeft=4;spacingRight=4;overflow=hidden;rotatable=0;points=[[0,0.5],[1,0.5]];portConstraint=eastwest;whiteSpace=wrap;html=1;" parent="c_lewcfAArgiSfq6SLHG-9" vertex="1">
          <mxGeometry y="26" width="160" height="26" as="geometry" />
        </mxCell>
        <mxCell id="c_lewcfAArgiSfq6SLHG-11" value="" style="line;strokeWidth=1;fillColor=none;align=left;verticalAlign=middle;spacingTop=-1;spacingLeft=3;spacingRight=3;rotatable=0;labelPosition=right;points=[];portConstraint=eastwest;strokeColor=inherit;" parent="c_lewcfAArgiSfq6SLHG-9" vertex="1">
          <mxGeometry y="52" width="160" height="8" as="geometry" />
        </mxCell>
        <mxCell id="c_lewcfAArgiSfq6SLHG-12" value="+ Pause(bool, bool): void" style="text;strokeColor=none;fillColor=none;align=left;verticalAlign=top;spacingLeft=4;spacingRight=4;overflow=hidden;rotatable=0;points=[[0,0.5],[1,0.5]];portConstraint=eastwest;whiteSpace=wrap;html=1;" parent="c_lewcfAArgiSfq6SLHG-9" vertex="1">
          <mxGeometry y="60" width="160" height="26" as="geometry" />
        </mxCell>
        <mxCell id="c_lewcfAArgiSfq6SLHG-13" value="&lt;p style=&quot;margin:0px;margin-top:4px;text-align:center;&quot;&gt;&lt;i&gt;&amp;lt;&amp;lt;Interface&amp;gt;&amp;gt;&lt;/i&gt;&lt;br&gt;&lt;b&gt;IControllerManager&lt;/b&gt;&lt;span style=&quot;background-color: initial; text-align: left;&quot;&gt;&amp;nbsp;&lt;/span&gt;&lt;/p&gt;&amp;nbsp;+ Pause(bool, bool): void" style="verticalAlign=top;align=left;overflow=fill;fontSize=12;fontFamily=Helvetica;html=1;whiteSpace=wrap;" parent="WIyWlLk6GJQsqaUBKTNV-1" vertex="1">
          <mxGeometry x="-40" y="1169" width="230" height="140" as="geometry" />
        </mxCell>
        <mxCell id="c_lewcfAArgiSfq6SLHG-14" value="" style="endArrow=block;dashed=1;endFill=0;endSize=12;html=1;rounded=0;exitX=0;exitY=0;exitDx=0;exitDy=0;entryX=1;entryY=0.5;entryDx=0;entryDy=0;" parent="WIyWlLk6GJQsqaUBKTNV-1" source="c_lewcfAArgiSfq6SLHG-9" target="c_lewcfAArgiSfq6SLHG-13" edge="1">
          <mxGeometry width="160" relative="1" as="geometry">
            <mxPoint x="110" y="1460" as="sourcePoint" />
            <mxPoint x="270" y="1460" as="targetPoint" />
          </mxGeometry>
        </mxCell>
        <mxCell id="lXE4e0FJUZBbb_cmk5LD-0" value="ExplosionBase" style="rounded=0;whiteSpace=wrap;html=1;" parent="WIyWlLk6GJQsqaUBKTNV-1" vertex="1">
          <mxGeometry x="-460" y="3920" width="120" height="60" as="geometry" />
        </mxCell>
        <mxCell id="lXE4e0FJUZBbb_cmk5LD-2" value="dispatch" style="html=1;verticalAlign=bottom;endArrow=block;curved=0;rounded=0;exitX=0.5;exitY=1;exitDx=0;exitDy=0;entryX=0.5;entryY=0;entryDx=0;entryDy=0;" parent="WIyWlLk6GJQsqaUBKTNV-1" source="QqlK9VXSwcepvZ4LUtZZ-21" target="lXE4e0FJUZBbb_cmk5LD-0" edge="1">
          <mxGeometry width="80" relative="1" as="geometry">
            <mxPoint x="-270" y="3820" as="sourcePoint" />
            <mxPoint x="-190" y="3820" as="targetPoint" />
          </mxGeometry>
        </mxCell>
        <mxCell id="lXE4e0FJUZBbb_cmk5LD-3" value="" style="rounded=1;absoluteArcSize=1;html=1;arcSize=10;strokeWidth=5;strokeColor=#001DBC;fillColor=#0050ef;fontColor=#ffffff;opacity=10;" parent="WIyWlLk6GJQsqaUBKTNV-1" vertex="1">
          <mxGeometry x="-540" y="3845" width="340" height="505" as="geometry" />
        </mxCell>
        <mxCell id="lXE4e0FJUZBbb_cmk5LD-4" value="AbilitySystem" style="html=1;shape=mxgraph.er.anchor;whiteSpace=wrap;fillColor=#6A00FF;" parent="lXE4e0FJUZBbb_cmk5LD-3" vertex="1">
          <mxGeometry x="9.315068493150685" width="69.86301369863013" height="99.74390862944162" as="geometry" />
        </mxCell>
        <mxCell id="SPBZD5g5DRkQ9FetPw6M-0" value="URougePawnExtensionComponent" style="rounded=0;whiteSpace=wrap;html=1;" parent="WIyWlLk6GJQsqaUBKTNV-1" vertex="1">
          <mxGeometry x="1605" y="2930" width="270" height="60" as="geometry" />
        </mxCell>
        <mxCell id="SPBZD5g5DRkQ9FetPw6M-1" value="UPawnComponent" style="rounded=0;whiteSpace=wrap;html=1;" parent="WIyWlLk6GJQsqaUBKTNV-1" vertex="1">
          <mxGeometry x="1680" y="2515" width="120" height="60" as="geometry" />
        </mxCell>
        <mxCell id="SPBZD5g5DRkQ9FetPw6M-5" value="Extends" style="endArrow=block;endSize=16;endFill=0;html=1;rounded=0;exitX=0.5;exitY=0;exitDx=0;exitDy=0;entryX=0.5;entryY=1;entryDx=0;entryDy=0;" parent="WIyWlLk6GJQsqaUBKTNV-1" source="SPBZD5g5DRkQ9FetPw6M-0" target="SPBZD5g5DRkQ9FetPw6M-1" edge="1">
          <mxGeometry width="160" relative="1" as="geometry">
            <mxPoint x="1750" y="2890" as="sourcePoint" />
            <mxPoint x="1910" y="2890" as="targetPoint" />
          </mxGeometry>
        </mxCell>
        <mxCell id="SPBZD5g5DRkQ9FetPw6M-6" value="URougeAbilitySystemComponent" style="html=1;whiteSpace=wrap;" parent="WIyWlLk6GJQsqaUBKTNV-1" vertex="1">
          <mxGeometry x="1130" y="2935" width="290" height="50" as="geometry" />
        </mxCell>
        <mxCell id="SPBZD5g5DRkQ9FetPw6M-9" value="" style="endArrow=open;endFill=1;endSize=12;html=1;rounded=0;exitX=0;exitY=0.5;exitDx=0;exitDy=0;entryX=1;entryY=0.5;entryDx=0;entryDy=0;" parent="WIyWlLk6GJQsqaUBKTNV-1" source="SPBZD5g5DRkQ9FetPw6M-0" target="SPBZD5g5DRkQ9FetPw6M-6" edge="1">
          <mxGeometry width="160" relative="1" as="geometry">
            <mxPoint x="1790" y="3060" as="sourcePoint" />
            <mxPoint x="1950" y="3060" as="targetPoint" />
          </mxGeometry>
        </mxCell>
        <mxCell id="SPBZD5g5DRkQ9FetPw6M-10" value="ARougeChacter" style="html=1;whiteSpace=wrap;" parent="WIyWlLk6GJQsqaUBKTNV-1" vertex="1">
          <mxGeometry x="2060" y="2630" width="110" height="50" as="geometry" />
        </mxCell>
        <mxCell id="SPBZD5g5DRkQ9FetPw6M-11" value="UHealthComponent" style="rounded=0;whiteSpace=wrap;html=1;" parent="WIyWlLk6GJQsqaUBKTNV-1" vertex="1">
          <mxGeometry x="2370" y="2930" width="270" height="60" as="geometry" />
        </mxCell>
        <mxCell id="SPBZD5g5DRkQ9FetPw6M-12" value="" style="endArrow=diamondThin;endFill=1;endSize=24;html=1;rounded=0;exitX=0.5;exitY=0;exitDx=0;exitDy=0;entryX=0.5;entryY=1;entryDx=0;entryDy=0;" parent="WIyWlLk6GJQsqaUBKTNV-1" source="SPBZD5g5DRkQ9FetPw6M-0" target="SPBZD5g5DRkQ9FetPw6M-10" edge="1">
          <mxGeometry width="160" relative="1" as="geometry">
            <mxPoint x="1850" y="2910" as="sourcePoint" />
            <mxPoint x="2010" y="2910" as="targetPoint" />
          </mxGeometry>
        </mxCell>
        <mxCell id="SPBZD5g5DRkQ9FetPw6M-13" value="" style="endArrow=diamondThin;endFill=1;endSize=24;html=1;rounded=0;exitX=0.5;exitY=0;exitDx=0;exitDy=0;entryX=0.5;entryY=1;entryDx=0;entryDy=0;" parent="WIyWlLk6GJQsqaUBKTNV-1" source="SPBZD5g5DRkQ9FetPw6M-11" target="SPBZD5g5DRkQ9FetPw6M-10" edge="1">
          <mxGeometry width="160" relative="1" as="geometry">
            <mxPoint x="1750" y="2940" as="sourcePoint" />
            <mxPoint x="2265" y="2715" as="targetPoint" />
          </mxGeometry>
        </mxCell>
        <mxCell id="SPBZD5g5DRkQ9FetPw6M-14" value="«interface»&lt;br&gt;&lt;b&gt;IGameFrameworkInitStateInterface&lt;/b&gt;" style="html=1;whiteSpace=wrap;" parent="WIyWlLk6GJQsqaUBKTNV-1" vertex="1">
          <mxGeometry x="1130" y="2600" width="250" height="50" as="geometry" />
        </mxCell>
        <mxCell id="SPBZD5g5DRkQ9FetPw6M-15" value="" style="endArrow=block;dashed=1;endFill=0;endSize=12;html=1;rounded=0;exitX=0;exitY=0.5;exitDx=0;exitDy=0;entryX=0.5;entryY=1;entryDx=0;entryDy=0;" parent="WIyWlLk6GJQsqaUBKTNV-1" source="SPBZD5g5DRkQ9FetPw6M-0" target="SPBZD5g5DRkQ9FetPw6M-14" edge="1">
          <mxGeometry width="160" relative="1" as="geometry">
            <mxPoint x="1500" y="2910" as="sourcePoint" />
            <mxPoint x="1660" y="2910" as="targetPoint" />
          </mxGeometry>
        </mxCell>
        <mxCell id="SPBZD5g5DRkQ9FetPw6M-16" value="&lt;h1&gt;通常从0开始设计游戏：&lt;br&gt;1，概念&lt;br&gt;2，概念转化核心玩法&lt;br&gt;3，发现非游戏部分如何fix&lt;br&gt;4，完成游戏核心设计&lt;br&gt;5，落实玩一下，不行over，行往下&lt;br&gt;6，填充一些内容看看行不行，不行over，行往下&lt;br&gt;7，给内容找借口——背景、剧情、世界观&lt;br&gt;8，思考美术元素，若美术不能做over，行往下&lt;br&gt;9，架构，看会不会出问题……这里已经是正式开始，但是依然有可能cancel屌&lt;br&gt;&lt;/h1&gt;" style="text;html=1;strokeColor=none;fillColor=none;spacing=5;spacingTop=-20;whiteSpace=wrap;overflow=hidden;rounded=0;" parent="WIyWlLk6GJQsqaUBKTNV-1" vertex="1">
          <mxGeometry x="1605" y="1210" width="1490" height="285" as="geometry" />
        </mxCell>
        <mxCell id="SPBZD5g5DRkQ9FetPw6M-29" value="" style="edgeStyle=orthogonalEdgeStyle;rounded=0;orthogonalLoop=1;jettySize=auto;html=1;" parent="WIyWlLk6GJQsqaUBKTNV-1" source="SPBZD5g5DRkQ9FetPw6M-17" target="SPBZD5g5DRkQ9FetPw6M-28" edge="1">
          <mxGeometry relative="1" as="geometry" />
        </mxCell>
        <mxCell id="SPBZD5g5DRkQ9FetPw6M-17" value="开始" style="rounded=1;whiteSpace=wrap;html=1;" parent="WIyWlLk6GJQsqaUBKTNV-1" vertex="1">
          <mxGeometry x="3000" y="2520" width="120" height="60" as="geometry" />
        </mxCell>
        <mxCell id="SPBZD5g5DRkQ9FetPw6M-18" value="输入" style="text;html=1;strokeColor=none;fillColor=none;align=center;verticalAlign=middle;whiteSpace=wrap;rounded=0;" parent="WIyWlLk6GJQsqaUBKTNV-1" vertex="1">
          <mxGeometry x="2865" y="2535" width="60" height="30" as="geometry" />
        </mxCell>
        <mxCell id="SPBZD5g5DRkQ9FetPw6M-31" value="" style="edgeStyle=orthogonalEdgeStyle;rounded=0;orthogonalLoop=1;jettySize=auto;html=1;" parent="WIyWlLk6GJQsqaUBKTNV-1" source="SPBZD5g5DRkQ9FetPw6M-28" target="SPBZD5g5DRkQ9FetPw6M-30" edge="1">
          <mxGeometry relative="1" as="geometry" />
        </mxCell>
        <mxCell id="SPBZD5g5DRkQ9FetPw6M-28" value="SetupPlayerInputComponent()" style="rounded=0;whiteSpace=wrap;html=1;" parent="WIyWlLk6GJQsqaUBKTNV-1" vertex="1">
          <mxGeometry x="2940" y="2640" width="240" height="60" as="geometry" />
        </mxCell>
        <mxCell id="SPBZD5g5DRkQ9FetPw6M-34" value="" style="edgeStyle=orthogonalEdgeStyle;rounded=0;orthogonalLoop=1;jettySize=auto;html=1;" parent="WIyWlLk6GJQsqaUBKTNV-1" source="SPBZD5g5DRkQ9FetPw6M-30" target="SPBZD5g5DRkQ9FetPw6M-32" edge="1">
          <mxGeometry relative="1" as="geometry" />
        </mxCell>
        <mxCell id="SPBZD5g5DRkQ9FetPw6M-30" value="CheckDefaultInitialize()" style="rounded=0;whiteSpace=wrap;html=1;" parent="WIyWlLk6GJQsqaUBKTNV-1" vertex="1">
          <mxGeometry x="2940" y="2760" width="240" height="60" as="geometry" />
        </mxCell>
        <mxCell id="SPBZD5g5DRkQ9FetPw6M-32" value="ContinueInitStateChain()" style="rounded=0;whiteSpace=wrap;html=1;" parent="WIyWlLk6GJQsqaUBKTNV-1" vertex="1">
          <mxGeometry x="2940" y="2892" width="240" height="60" as="geometry" />
        </mxCell>
        <mxCell id="SPBZD5g5DRkQ9FetPw6M-35" value="初始化流程" style="text;html=1;strokeColor=none;fillColor=none;align=center;verticalAlign=middle;whiteSpace=wrap;rounded=0;" parent="WIyWlLk6GJQsqaUBKTNV-1" vertex="1">
          <mxGeometry x="900" y="4082.5" width="215" height="30" as="geometry" />
        </mxCell>
        <mxCell id="SPBZD5g5DRkQ9FetPw6M-37" value="ARougeCharacter" style="shape=umlLifeline;whiteSpace=wrap;html=1;container=1;dropTarget=0;collapsible=0;recursiveResize=0;outlineConnect=0;portConstraint=eastwest;newEdgeStyle={&quot;curved&quot;:0,&quot;rounded&quot;:0};points=[[0,0,0,0,5],[0,1,0,0,-5],[1,0,0,0,5],[1,1,0,0,-5]];perimeter=rectanglePerimeter;targetShapes=umlLifeline;participant=label;" parent="WIyWlLk6GJQsqaUBKTNV-1" vertex="1">
          <mxGeometry x="1020" y="4190" width="100" height="660" as="geometry" />
        </mxCell>
        <mxCell id="SPBZD5g5DRkQ9FetPw6M-38" value="" style="html=1;points=[[0,0,0,0,5],[0,1,0,0,-5],[1,0,0,0,5],[1,1,0,0,-5]];perimeter=orthogonalPerimeter;outlineConnect=0;targetShapes=umlLifeline;portConstraint=eastwest;newEdgeStyle={&quot;curved&quot;:0,&quot;rounded&quot;:0};" parent="SPBZD5g5DRkQ9FetPw6M-37" vertex="1">
          <mxGeometry x="45" y="110" width="10" height="290" as="geometry" />
        </mxCell>
        <mxCell id="SPBZD5g5DRkQ9FetPw6M-43" style="edgeStyle=orthogonalEdgeStyle;rounded=0;orthogonalLoop=1;jettySize=auto;html=1;curved=0;" parent="SPBZD5g5DRkQ9FetPw6M-37" source="SPBZD5g5DRkQ9FetPw6M-38" target="SPBZD5g5DRkQ9FetPw6M-38" edge="1">
          <mxGeometry relative="1" as="geometry" />
        </mxCell>
        <mxCell id="SPBZD5g5DRkQ9FetPw6M-39" value="ULyraPawnExtensionComponent" style="shape=umlLifeline;whiteSpace=wrap;html=1;container=1;dropTarget=0;collapsible=0;recursiveResize=0;outlineConnect=0;portConstraint=eastwest;newEdgeStyle={&quot;curved&quot;:0,&quot;rounded&quot;:0};points=[[0,0,0,0,5],[0,1,0,0,-5],[1,0,0,0,5],[1,1,0,0,-5]];perimeter=rectanglePerimeter;targetShapes=umlLifeline;participant=label;" parent="WIyWlLk6GJQsqaUBKTNV-1" vertex="1">
          <mxGeometry x="1380" y="4180" width="230" height="630" as="geometry" />
        </mxCell>
        <mxCell id="SPBZD5g5DRkQ9FetPw6M-40" value="" style="html=1;points=[[0,0,0,0,5],[0,1,0,0,-5],[1,0,0,0,5],[1,1,0,0,-5]];perimeter=orthogonalPerimeter;outlineConnect=0;targetShapes=umlLifeline;portConstraint=eastwest;newEdgeStyle={&quot;curved&quot;:0,&quot;rounded&quot;:0};" parent="SPBZD5g5DRkQ9FetPw6M-39" vertex="1">
          <mxGeometry x="110" y="120" width="10" height="320" as="geometry" />
        </mxCell>
        <mxCell id="SPBZD5g5DRkQ9FetPw6M-41" style="edgeStyle=orthogonalEdgeStyle;rounded=0;orthogonalLoop=1;jettySize=auto;html=1;curved=0;" parent="WIyWlLk6GJQsqaUBKTNV-1" source="SPBZD5g5DRkQ9FetPw6M-38" target="SPBZD5g5DRkQ9FetPw6M-40" edge="1">
          <mxGeometry relative="1" as="geometry">
            <Array as="points">
              <mxPoint x="1390" y="4340" />
              <mxPoint x="1390" y="4340" />
            </Array>
          </mxGeometry>
        </mxCell>
        <mxCell id="SPBZD5g5DRkQ9FetPw6M-42" value="OnAbilitySystemInitialized_RegisterAndCall" style="edgeLabel;html=1;align=center;verticalAlign=middle;resizable=0;points=[];" parent="SPBZD5g5DRkQ9FetPw6M-41" vertex="1" connectable="0">
          <mxGeometry x="-0.1307" y="-2" relative="1" as="geometry">
            <mxPoint as="offset" />
          </mxGeometry>
        </mxCell>
        <mxCell id="SPBZD5g5DRkQ9FetPw6M-44" value="InitializeGameplayTags" style="text;html=1;align=center;verticalAlign=middle;resizable=0;points=[];autosize=1;strokeColor=none;fillColor=none;" parent="WIyWlLk6GJQsqaUBKTNV-1" vertex="1">
          <mxGeometry x="1115" y="4428" width="150" height="30" as="geometry" />
        </mxCell>
        <mxCell id="-P6vb1Cmgdt9AWCi1Bw1-1" value="ULyraHeroComponent" style="shape=umlLifeline;whiteSpace=wrap;html=1;container=1;dropTarget=0;collapsible=0;recursiveResize=0;outlineConnect=0;portConstraint=eastwest;newEdgeStyle={&quot;curved&quot;:0,&quot;rounded&quot;:0};points=[[0,0,0,0,5],[0,1,0,0,-5],[1,0,0,0,5],[1,1,0,0,-5]];perimeter=rectanglePerimeter;targetShapes=umlLifeline;participant=label;" vertex="1" parent="WIyWlLk6GJQsqaUBKTNV-1">
          <mxGeometry x="1860" y="4180" width="230" height="630" as="geometry" />
        </mxCell>
        <mxCell id="-P6vb1Cmgdt9AWCi1Bw1-2" value="" style="html=1;points=[[0,0,0,0,5],[0,1,0,0,-5],[1,0,0,0,5],[1,1,0,0,-5]];perimeter=orthogonalPerimeter;outlineConnect=0;targetShapes=umlLifeline;portConstraint=eastwest;newEdgeStyle={&quot;curved&quot;:0,&quot;rounded&quot;:0};" vertex="1" parent="-P6vb1Cmgdt9AWCi1Bw1-1">
          <mxGeometry x="110" y="120" width="10" height="320" as="geometry" />
        </mxCell>
        <mxCell id="-P6vb1Cmgdt9AWCi1Bw1-3" value="URougeHeroComponent" style="rounded=0;whiteSpace=wrap;html=1;" vertex="1" parent="WIyWlLk6GJQsqaUBKTNV-1">
          <mxGeometry x="1480" y="3187" width="270" height="60" as="geometry" />
        </mxCell>
        <mxCell id="-P6vb1Cmgdt9AWCi1Bw1-5" value="" style="endArrow=block;dashed=1;endFill=0;endSize=12;html=1;rounded=0;exitX=0;exitY=0.5;exitDx=0;exitDy=0;entryX=0.5;entryY=1;entryDx=0;entryDy=0;" edge="1" parent="WIyWlLk6GJQsqaUBKTNV-1" source="-P6vb1Cmgdt9AWCi1Bw1-3" target="SPBZD5g5DRkQ9FetPw6M-14">
          <mxGeometry width="160" relative="1" as="geometry">
            <mxPoint x="1615" y="2970" as="sourcePoint" />
            <mxPoint x="1265" y="2660" as="targetPoint" />
          </mxGeometry>
        </mxCell>
        <mxCell id="-P6vb1Cmgdt9AWCi1Bw1-6" value="ARougePlayerController" style="html=1;whiteSpace=wrap;" vertex="1" parent="WIyWlLk6GJQsqaUBKTNV-1">
          <mxGeometry x="2080" y="3190" width="260" height="50" as="geometry" />
        </mxCell>
      </root>
    </mxGraphModel>
  </diagram>
</mxfile>
